<?xml version="1.0" encoding="UTF-8"?><svg id="Passkey--Streamline-Outlined-Material" xmlns="http://www.w3.org/2000/svg" viewBox="0 0 54.36 54.36"><path d="M.93,44.21v-6.49c0-1.75.44-3.25,1.31-4.49.87-1.24,2-2.19,3.38-2.83,3.09-1.38,6.04-2.42,8.88-3.11s5.68-1.04,8.53-1.04c1.2,0,2.36.06,3.49.17s2.29.29,3.49.52c-.23,2.67.26,5.19,1.49,7.56,1.22,2.37,3,4.23,5.35,5.56v4.14H.93ZM45.14,54.36l-4.14-4.14v-12.85c-2.03-.6-3.68-1.74-4.97-3.42-1.29-1.68-1.93-3.63-1.93-5.84,0-2.67.94-4.95,2.83-6.84s4.17-2.83,6.84-2.83,4.95.94,6.84,2.83,2.83,4.17,2.83,6.84c0,2.07-.59,3.91-1.76,5.53-1.17,1.61-2.66,2.76-4.46,3.45l3.45,3.45-4.14,4.14,4.14,4.14s-5.53,5.53-5.53,5.53ZM23.04,20.72c-2.9,0-5.35-1-7.36-3-2-2-3-4.46-3-7.36s1-5.35,3-7.36S20.13,0,23.04,0s5.35,1,7.36,3,3,4.46,3,7.36-1,5.35-3,7.36c-2,2-4.46,3-7.36,3ZM43.76,29.49c.78,0,1.44-.26,1.97-.79s.79-1.19.79-1.97-.26-1.44-.79-1.97-1.19-.79-1.97-.79-1.44.26-1.97.79-.79,1.19-.79,1.97.26,1.44.79,1.97,1.19.79,1.97.79Z"/></svg>